<svg width="40" height="40" viewBox="0 0 40 40" fill="none" stroke="none" xmlns="http://www.w3.org/2000/svg"><svg width="40" height="40" viewBox="0 0 40 40" fill="none" xmlns="http://www.w3.org/2000/svg"><rect width="40" height="40" rx="20" fill="url(#paint0_linear_8355_90113)"></rect><path d="M20.179 7.49805C21.269 8.82302 22.4712 10.0535 23.7712 11.1752C22.9044 13.9646 22.4377 16.9283 22.4377 20C22.4377 23.0711 22.9042 26.0341 23.7706 28.8229C22.4708 29.9445 21.2688 31.1748 20.179 32.4996C19.0886 31.1742 17.8859 29.9433 16.5854 28.8213C17.4515 26.0329 17.9178 23.0705 17.9178 20C17.9178 16.9289 17.4513 13.9658 16.5848 11.1769C17.8856 10.0547 19.0884 8.82367 20.179 7.49805Z" fill="white"></path><path d="M14.1006 26.8935C12.7244 25.9363 11.264 25.0903 9.73242 24.3687C10.1574 22.9864 10.3861 21.519 10.3861 19.9987C10.3861 18.4784 10.1575 17.0112 9.73249 15.6289C11.2638 14.9074 12.7241 14.0616 14.1001 13.1044C14.6266 15.3181 14.9051 17.6268 14.9051 20C14.9051 22.3725 14.6267 24.6805 14.1006 26.8935Z" fill="white"></path><path d="M25.4528 20C25.4528 22.3725 25.7312 24.6805 26.2574 26.8935C27.6334 25.9364 29.0937 25.0904 30.6252 24.3689C30.2001 22.9865 29.9715 21.5191 29.9715 19.9987C29.9715 18.4784 30.2001 17.0111 30.6251 15.6288C29.0939 14.9073 27.6337 14.0615 26.2578 13.1044C25.7314 15.3181 25.4528 17.6268 25.4528 20Z" fill="white"></path><defs><linearGradient id="paint0_linear_8355_90113" x1="-1.1" y1="-10.457" x2="51.4908" y2="12.5633" gradientUnits="userSpaceOnUse"><stop offset="0.059584" stop-color="#3728B7"></stop><stop offset="0.512856" stop-color="#6851FF"></stop><stop offset="1" stop-color="#C970FF"></stop></linearGradient></defs></svg></svg>
